<svg width="24" height="24" viewBox="0 0 24 24" fill="none" xmlns="http://www.w3.org/2000/svg">
    <path d="M8.67523 6.26414C8.49894 6.43332 8.3999 6.66274 8.3999 6.90196C8.3999 7.14118 8.49894 7.37061 8.67523 7.53978L13.3301 12.0054L8.67523 16.4711C8.50393 16.6413 8.40915 16.8691 8.41129 17.1057C8.41343 17.3422 8.51233 17.5685 8.68668 17.7358C8.86104 17.903 9.09689 17.9979 9.34345 18C9.59002 18.002 9.82755 17.9111 10.0049 17.7468L15.3246 12.6433C15.5009 12.4741 15.5999 12.2447 15.5999 12.0054C15.5999 11.7662 15.5009 11.5368 15.3246 11.3676L10.0049 6.26414C9.82857 6.09501 9.58942 6 9.34007 6C9.09072 6 8.85157 6.09501 8.67523 6.26414V6.26414Z" fill="black"/>
</svg>
