<svg viewBox="0 0 80 80" fill="none" xmlns="http://www.w3.org/2000/svg">
    <path d="M10 30.5714C10 23.3708 10 19.7704 11.4013 17.0201C12.634 14.6009 14.6009 12.634 17.0201 11.4013C19.7704 10 23.3708 10 30.5714 10H49.4286C56.6292 10 60.2296 10 62.9799 11.4013C65.3991 12.634 67.366 14.6009 68.5987 17.0201C70 19.7704 70 23.3708 70 30.5714V49.4286C70 56.6292 70 60.2296 68.5987 62.9799C67.366 65.3991 65.3991 67.366 62.9799 68.5987C60.2296 70 56.6292 70 49.4286 70H30.5714C23.3708 70 19.7704 70 17.0201 68.5987C14.6009 67.366 12.634 65.3991 11.4013 62.9799C10 60.2296 10 56.6292 10 49.4286V30.5714Z" fill="url(#paint0_linear_1050_7843)"/>
    <path d="M58.055 27.3067C54.7523 24.5867 50.789 23.2267 46.6055 23L45.945 23.68C49.6881 24.5867 52.9908 26.4 56.0734 28.8933C52.3303 26.8533 48.1468 25.4933 43.7431 25.04C42.422 24.8133 41.3211 24.8133 40 24.8133C38.6789 24.8133 37.578 24.8133 36.2569 25.04C31.8532 25.4933 27.6697 26.8533 23.9266 28.8933C27.0092 26.4 30.3119 24.5867 34.055 23.68L33.3945 23C29.211 23.2267 25.2477 24.5867 21.945 27.3067C18.2018 34.56 16.2202 42.72 16 51.1067C19.3028 54.7333 23.9266 57 28.7706 57C28.7706 57 30.3119 55.1867 31.4128 53.6C28.5505 52.92 25.9083 51.3333 24.1468 48.84C25.6881 49.7467 27.2294 50.6533 28.7706 51.3333C30.7523 52.24 32.7339 52.6933 34.7156 53.1467C36.4771 53.3733 38.2385 53.6 40 53.6C41.7615 53.6 43.5229 53.3733 45.2844 53.1467C47.2661 52.6933 49.2477 52.24 51.2294 51.3333C52.7706 50.6533 54.3119 49.7467 55.8532 48.84C54.0917 51.3333 51.4495 52.92 48.5872 53.6C49.6881 55.1867 51.2294 57 51.2294 57C56.0734 57 60.6972 54.7333 64 51.1067C63.7798 42.72 61.7982 34.56 58.055 27.3067ZM32.7339 47.0267C30.5321 47.0267 28.5505 44.9867 28.5505 42.4933C28.5505 40 30.5321 37.96 32.7339 37.96C34.9358 37.96 36.9174 40 36.9174 42.4933C36.9174 44.9867 34.9358 47.0267 32.7339 47.0267ZM47.2661 47.0267C45.0642 47.0267 43.0826 44.9867 43.0826 42.4933C43.0826 40 45.0642 37.96 47.2661 37.96C49.4679 37.96 51.4495 40 51.4495 42.4933C51.4495 44.9867 49.4679 47.0267 47.2661 47.0267Z" fill="white"/>
    <defs>
        <linearGradient id="paint0_linear_1050_7843" x1="40" y1="10" x2="40" y2="70" gradientUnits="userSpaceOnUse">
            <stop stop-color="#687EC9"/>
            <stop offset="1" stop-color="#5971C3"/>
        </linearGradient>
    </defs>
</svg>
