<svg viewBox="0 0 80 80" fill="none" xmlns="http://www.w3.org/2000/svg">
    <rect x="10" y="10" width="60" height="60" rx="30" fill="#1275B1"/>
    <path d="M32.7196 26.626C32.7196 28.6286 30.9915 30.2521 28.8598 30.2521C26.7281 30.2521 25 28.6286 25 26.626C25 24.6234 26.7281 23 28.8598 23C30.9915 23 32.7196 24.6234 32.7196 26.626Z" fill="white"/>
    <path d="M25.5278 32.9174H32.1258V53H25.5278V32.9174Z" fill="white"/>
    <path d="M42.7485 32.9174H36.1505V53H42.7485C42.7485 53 42.7485 46.6777 42.7485 42.7247C42.7485 40.352 43.555 37.969 46.7732 37.969C50.4102 37.969 50.3883 41.074 50.3713 43.4795C50.3491 46.6238 50.4021 49.8325 50.4021 53H57V42.4008C56.9441 35.6329 55.1884 32.5145 49.4124 32.5145C45.9822 32.5145 43.8559 34.0787 42.7485 35.4939V32.9174Z" fill="white"/>
</svg>
