<svg width="24" height="25" viewBox="0 0 24 25" fill="none" xmlns="http://www.w3.org/2000/svg">
    <path d="M12 10.5C15.976 10.5 20 9.126 20 6.5C20 3.874 15.976 2.5 12 2.5C8.024 2.5 4 3.874 4 6.5C4 9.126 8.024 10.5 12 10.5Z" fill="#72E655"/>
    <path d="M4 10.5C4 13.126 8.024 14.5 12 14.5C15.976 14.5 20 13.126 20 10.5V8.5C20 11.126 15.976 12.5 12 12.5C8.024 12.5 4 11.126 4 8.5V10.5Z" fill="#72E655"/>
    <path d="M4 14.5C4 17.126 8.024 18.5 12 18.5C15.976 18.5 20 17.126 20 14.5V12.5C20 15.126 15.976 16.5 12 16.5C8.024 16.5 4 15.126 4 12.5V14.5Z" fill="#72E655"/>
    <path d="M4 18.5C4 21.126 8.024 22.5 12 22.5C15.976 22.5 20 21.126 20 18.5V16.5C20 19.126 15.976 20.5 12 20.5C8.024 20.5 4 19.126 4 16.5V18.5Z" fill="#72E655"/>
</svg>
