<svg width="24" height="25" viewBox="0 0 24 25" fill="none" xmlns="http://www.w3.org/2000/svg">
    <path d="M12.0004 7.5L12 13.7483L16.798 17.5C17.4672 16.5719 17.8749 15.468 17.9755 14.3122C18.0761 13.1563 17.8656 11.9941 17.3675 10.9558C16.8693 9.91767 16.1033 9.0445 15.1554 8.43415C14.2074 7.82381 13.1149 7.5002 12.0004 7.5Z" fill="#72E655"/>
    <path d="M10.2473 2.5C10.139 2.5 10.0352 2.54214 9.95861 2.61716C9.88204 2.69217 9.83902 2.79391 9.83902 2.9V3.7C9.83902 3.80609 9.88204 3.90783 9.95861 3.98284C10.0352 4.05786 10.139 4.1 10.2473 4.1H10.8598V5.159C6.44278 5.657 3 9.3418 3 13.8C3 18.5966 6.98439 22.5 11.8805 22.5C16.7766 22.5 20.761 18.5966 20.761 13.8C20.7627 12.1582 20.2868 10.55 19.3891 9.1636L20.2543 8.4774L20.6398 8.9438C20.6735 8.98464 20.7151 9.01858 20.7622 9.04367C20.8093 9.06876 20.861 9.08451 20.9143 9.09003C20.9677 9.09555 21.0216 9.09072 21.073 9.07582C21.1244 9.06092 21.1724 9.03624 21.214 9.0032L21.8489 8.4996C21.933 8.43279 21.9865 8.33603 21.9978 8.23057C22.009 8.12511 21.9771 8.01959 21.909 7.9372L19.8536 5.45C19.8199 5.40916 19.7783 5.37522 19.7311 5.35013C19.684 5.32504 19.6323 5.30929 19.579 5.30377C19.5257 5.29825 19.4718 5.30308 19.4203 5.31798C19.3689 5.33288 19.321 5.35756 19.2793 5.3906L18.6444 5.8942C18.5604 5.96101 18.5068 6.05777 18.4956 6.16323C18.4843 6.26869 18.5163 6.37421 18.5844 6.4566L18.97 6.923L18.1085 7.6058C16.7332 6.2782 14.9189 5.387 12.9013 5.1594V4.1H13.5137C13.622 4.1 13.7259 4.05786 13.8024 3.98284C13.879 3.90783 13.922 3.80609 13.922 3.7V2.9C13.922 2.79391 13.879 2.69217 13.8024 2.61716C13.7259 2.54214 13.622 2.5 13.5137 2.5H10.2473ZM11.8805 6.5C16.0043 6.5 19.332 9.76 19.332 13.8C19.332 17.84 16.0043 21.1 11.8805 21.1C7.75669 21.1 4.42905 17.84 4.42905 13.8C4.42905 9.76 7.75669 6.5 11.8805 6.5Z" fill="#72E655"/>
</svg>
