<svg width="16" height="16" viewBox="0 0 16 16" fill="none" xmlns="http://www.w3.org/2000/svg">
    <g clip-path="url(#clip0_97_1193)">
        <path fill-rule="evenodd" clip-rule="evenodd" d="M12.8915 8.63675L14.5495 6.97848C16.0734 5.45485 16.0735 2.97455 14.5495 1.45098C13.0258 -0.0731002 10.5456 -0.0731612 9.02167 1.45094L5.77506 4.69755C4.2511 6.22119 4.25108 8.70147 5.77503 10.225C5.94257 10.3927 6.1221 10.5415 6.31068 10.6721L7.54515 9.43749C7.33914 9.33474 7.14582 9.19781 6.97413 9.02609M6.97413 9.02609C6.11111 8.16306 6.11104 6.75926 6.97413 5.8964L10.2207 2.6498C11.0838 1.78676 12.4876 1.78671 13.3504 2.6498C14.2135 3.51284 14.2135 4.9165 13.3504 5.77948L12.5368 6.59322C12.7868 7.24942 12.9048 7.94413 12.8915 8.63675" fill="currentColor"/>
        <path fill-rule="evenodd" clip-rule="evenodd" d="M8.46303 6.55498C8.66892 6.65764 8.86226 6.79443 9.03412 6.96624C9.89718 7.82929 9.89723 9.233 9.03414 10.096L5.78724 13.3426C4.92419 14.2056 3.52053 14.2056 2.65755 13.3426C1.79449 12.4795 1.79447 11.0758 2.65756 10.2129L3.47127 9.39925C3.22123 8.74305 3.10332 8.04822 3.11681 7.35557L1.459 9.01357C-0.0650814 10.5373 -0.0651277 13.0175 1.45897 14.5414C2.9826 16.0653 5.46291 16.0654 6.98681 14.5414L10.2331 11.2948C11.757 9.77107 11.7569 7.2909 10.2331 5.76731C10.0658 5.59973 9.88624 5.45085 9.69764 5.32019L8.46303 6.55498Z" fill="currentColor"/>
    </g>
    <defs>
        <clipPath id="clip0_97_1193">
            <rect width="16" height="16" fill="white"/>
        </clipPath>
    </defs>
</svg>
