<svg width="12" height="7" viewBox="0 0 12 7" fill="none" xmlns="http://www.w3.org/2000/svg">
    <path d="M11.7359 0.267679C11.5667 0.0962844 11.3373 -2.89694e-08 11.098 -3.9426e-08C10.8588 -4.98826e-08 10.6294 0.0962844 10.4602 0.267679L5.99455 4.7932L1.52889 0.267679C1.35874 0.101141 1.13086 0.00898998 0.894314 0.011073C0.657772 0.013156 0.4315 0.109307 0.264234 0.278815C0.0969667 0.448324 0.00208947 0.677629 3.42922e-05 0.917341C-0.00202184 1.15705 0.08891 1.38799 0.253245 1.56042L5.35673 6.73232C5.52591 6.90372 5.75533 7 5.99455 7C6.23377 7 6.4632 6.90372 6.63238 6.73232L11.7359 1.56042C11.905 1.38898 12 1.15648 12 0.914052C12 0.671626 11.905 0.439126 11.7359 0.267679Z" fill="white"/>
</svg>
