<svg width="20" height="20" viewBox="0 0 20 20" fill="none" xmlns="http://www.w3.org/2000/svg">
    <path fill-rule="evenodd" clip-rule="evenodd" d="M9.99995 11.7683L14.4191 16.1875C14.6536 16.422 14.9717 16.5537 15.3033 16.5537C15.6349 16.5537 15.953 16.422 16.1875 16.1875C16.4219 15.953 16.5537 15.6349 16.5537 15.3033C16.5537 14.9717 16.4219 14.6536 16.1875 14.4191L11.7666 9.99997L16.1866 5.5808C16.3027 5.46469 16.3947 5.32686 16.4575 5.17518C16.5203 5.02349 16.5526 4.86092 16.5526 4.69676C16.5525 4.53259 16.5201 4.37004 16.4573 4.21839C16.3944 4.06673 16.3023 3.92894 16.1862 3.81289C16.0701 3.69683 15.9323 3.60478 15.7806 3.54199C15.6289 3.47921 15.4663 3.44691 15.3022 3.44695C15.138 3.44699 14.9754 3.47936 14.8238 3.54222C14.6721 3.60508 14.5343 3.69719 14.4183 3.8133L9.99995 8.23247L5.58079 3.8133C5.46554 3.69386 5.32765 3.59857 5.17518 3.53299C5.0227 3.46741 4.85869 3.43285 4.69272 3.43133C4.52675 3.42981 4.36213 3.46136 4.20849 3.52414C4.05484 3.58691 3.91523 3.67966 3.79781 3.79697C3.68039 3.91428 3.58751 4.05381 3.52458 4.2074C3.46166 4.36099 3.42995 4.52557 3.43132 4.69154C3.43268 4.85752 3.46708 5.02156 3.53252 5.17409C3.59796 5.32663 3.69312 5.4646 3.81245 5.57997L8.23329 9.99997L3.81329 14.42C3.69396 14.5353 3.59879 14.6733 3.53336 14.8258C3.46792 14.9784 3.43351 15.1424 3.43215 15.3084C3.43079 15.4744 3.46249 15.639 3.52541 15.7925C3.58834 15.9461 3.68122 16.0857 3.79864 16.203C3.91606 16.3203 4.05567 16.413 4.20932 16.4758C4.36297 16.5386 4.52758 16.5701 4.69355 16.5686C4.85953 16.5671 5.02354 16.5325 5.17601 16.467C5.32848 16.4014 5.46637 16.3061 5.58162 16.1866L9.99995 11.7683Z" fill="white"/>
</svg>
