<svg width="24" height="24" viewBox="0 0 24 24" fill="none" xmlns="http://www.w3.org/2000/svg">
    <rect width="24" height="24" rx="5" fill="#212121"/>
    <path d="M17.5447 6.7704C16.5249 6.30248 15.4313 5.95774 14.2879 5.76029C14.2671 5.75648 14.2463 5.766 14.2356 5.78505C14.0949 6.03519 13.9392 6.36152 13.8301 6.61802C12.6003 6.43391 11.3768 6.43391 10.1722 6.61802C10.0631 6.35582 9.90166 6.03519 9.76038 5.78505C9.74966 5.76664 9.72886 5.75711 9.70803 5.76029C8.56527 5.95711 7.47171 6.30185 6.45129 6.7704C6.44246 6.77421 6.43488 6.78057 6.42986 6.78881C4.35559 9.88772 3.78737 12.9105 4.06612 15.8957C4.06738 15.9103 4.07558 15.9243 4.08693 15.9332C5.45547 16.9382 6.78114 17.5483 8.08219 17.9528C8.10301 17.9591 8.12507 17.9515 8.13832 17.9343C8.44608 17.5141 8.72043 17.0709 8.95565 16.6049C8.96953 16.5776 8.95628 16.5452 8.92791 16.5344C8.49275 16.3693 8.0784 16.1681 7.67982 15.9395C7.64829 15.9211 7.64577 15.876 7.67477 15.8544C7.75865 15.7916 7.84255 15.7262 7.92264 15.6602C7.93713 15.6481 7.95732 15.6456 7.97435 15.6532C10.5929 16.8487 13.4277 16.8487 16.0153 15.6532C16.0323 15.6449 16.0525 15.6475 16.0677 15.6595C16.1478 15.7256 16.2316 15.7916 16.3161 15.8544C16.3451 15.876 16.3433 15.9211 16.3117 15.9395C15.9131 16.1725 15.4988 16.3693 15.063 16.5338C15.0346 16.5446 15.022 16.5776 15.0359 16.6049C15.2762 17.0703 15.5505 17.5134 15.8526 17.9337C15.8652 17.9515 15.8879 17.9591 15.9087 17.9528C17.2161 17.5483 18.5417 16.9382 19.9103 15.9332C19.9223 15.9243 19.9298 15.911 19.9311 15.8964C20.2647 12.4451 19.3723 9.44711 17.5655 6.78944C17.5611 6.78057 17.5535 6.77421 17.5447 6.7704ZM9.34668 14.078C8.55833 14.078 7.90876 13.3542 7.90876 12.4654C7.90876 11.5765 8.54574 10.8528 9.34668 10.8528C10.1539 10.8528 10.7972 11.5829 10.7846 12.4654C10.7846 13.3542 10.1476 14.078 9.34668 14.078ZM14.6632 14.078C13.8748 14.078 13.2253 13.3542 13.2253 12.4654C13.2253 11.5765 13.8622 10.8528 14.6632 10.8528C15.4704 10.8528 16.1137 11.5829 16.1011 12.4654C16.1011 13.3542 15.4704 14.078 14.6632 14.078Z" fill="white"/>
</svg>
