<svg width="92" height="16" viewBox="0 0 92 16" fill="none" xmlns="http://www.w3.org/2000/svg">
    <g clip-path="url(#clip0_97_69)">
        <path fill-rule="evenodd" clip-rule="evenodd" d="M55.6398 5.05579C53.186 5.05579 51.183 6.9818 51.183 9.34118C51.183 11.7006 53.186 13.6266 55.6398 13.6266C57.092 13.6266 58.394 12.9525 59.2453 11.8932L57.8432 10.8338C57.3424 11.5079 56.5412 11.8932 55.6398 11.8932C54.438 11.8932 53.3863 11.1227 53.0358 10.0634H58.1937H59.6459H59.9964C60.0465 9.82268 60.0465 9.58193 60.0465 9.29303C60.0966 6.9818 58.0935 5.05579 55.6398 5.05579ZM53.0358 8.66707C53.3363 7.55961 54.3879 6.74105 55.6398 6.74105C56.8917 6.74105 57.9433 7.55961 58.2438 8.66707H53.0358Z" fill="white"/>
        <path fill-rule="evenodd" clip-rule="evenodd" d="M28.5936 6.40403V2.21494H30.4464V13.434H28.5936V12.2784C27.8925 13.1932 26.891 13.6747 25.589 13.6747C24.4373 13.6747 23.4357 13.2414 22.5844 12.4228C21.7331 11.6043 21.3325 10.5931 21.3325 9.34121C21.3325 8.08929 21.7331 7.12628 22.5844 6.25957C23.4357 5.44102 24.3872 5.00766 25.589 5.00766C26.891 5.05581 27.8925 5.48917 28.5936 6.40403ZM23.9365 11.2191C24.4373 11.7006 25.0883 11.9413 25.8394 11.9413C26.5906 11.9413 27.2415 11.7006 27.7423 11.2191C28.2431 10.7376 28.4935 10.1116 28.4935 9.34121C28.4935 8.5708 28.2431 7.94484 27.7423 7.46334C27.2415 6.98183 26.5906 6.69293 25.8394 6.69293C25.0883 6.69293 24.4373 6.93368 23.9365 7.46334C23.4357 7.94484 23.1854 8.5708 23.1854 9.34121C23.1854 10.0635 23.4357 10.7376 23.9365 11.2191Z" fill="white"/>
        <path fill-rule="evenodd" clip-rule="evenodd" d="M88.5904 5.05581C89.5419 5.05581 90.3431 5.34471 90.944 5.97067C91.545 6.54848 91.8454 7.36703 91.8454 8.37819V13.434H89.9926V8.47449C89.9926 7.89669 89.8424 7.46333 89.5419 7.17443C89.2414 6.83738 88.8408 6.69293 88.3401 6.69293C87.7391 6.69293 87.2885 6.88553 86.988 7.22258C86.6375 7.60779 86.4872 8.13744 86.4872 8.81155V13.3858H84.6344V8.47449C84.6344 7.89669 84.4842 7.46333 84.2338 7.17443C83.9333 6.88553 83.5828 6.69293 83.032 6.69293C82.4811 6.69293 82.0304 6.88553 81.6799 7.27073C81.3294 7.65594 81.1791 8.18559 81.1791 8.8597V13.434H79.3263V5.24841H81.1791V6.21142C81.73 5.39286 82.5312 5.00766 83.6329 5.00766C84.7346 5.00766 85.5358 5.44101 86.0366 6.30772C86.5373 5.48916 87.4387 5.05581 88.5904 5.05581Z" fill="white"/>
        <path d="M50.0813 2.21494H48.2285V13.434H50.0813V2.21494Z" fill="white"/>
        <path fill-rule="evenodd" clip-rule="evenodd" d="M0.751148 7.07812H4.75727C5.45834 7.07812 6.10933 6.78922 6.6101 6.35586C7.06079 5.92251 7.36125 5.29655 7.36125 4.5743V0.722257V0H8.11239H15.5237H16.2749V0.722257V7.80038V8.52263H15.5237H11.5176C10.8165 8.52263 10.1655 8.81154 9.66476 9.24489C9.21408 9.67825 8.91362 10.3042 8.91362 11.0265V14.8785V15.6008H8.16247H0.751148H0V14.9266V7.84853V7.12627H0.751148V7.07812ZM4.75727 8.57078H1.5023V14.2044H7.36125V11.0746C7.36125 9.96715 7.81193 9.00414 8.56308 8.28188C9.31423 7.55962 10.3658 7.12627 11.4675 7.12627H14.7225V1.44451H8.91362V4.5743C8.91362 5.68176 8.46293 6.64477 7.71178 7.36702C6.96063 8.13743 5.90903 8.57078 4.75727 8.57078Z" fill="#33CC66"/>
        <path fill-rule="evenodd" clip-rule="evenodd" d="M73.8174 5.05579C71.3637 5.05579 69.3606 6.9818 69.3606 9.34118C69.3606 11.7006 71.3637 13.6266 73.8174 13.6266C76.2712 13.6266 78.2742 11.7006 78.2742 9.34118C78.2742 6.9818 76.2712 5.05579 73.8174 5.05579ZM73.8174 6.74105C75.3197 6.74105 76.5215 7.89666 76.5215 9.34118C76.5215 10.7857 75.3197 11.9413 73.8174 11.9413C72.3151 11.9413 71.1133 10.7857 71.1133 9.34118C71.1133 7.89666 72.3151 6.74105 73.8174 6.74105Z" fill="white"/>
        <path fill-rule="evenodd" clip-rule="evenodd" d="M65.3045 5.05579C62.8507 5.05579 60.8477 6.9818 60.8477 9.34118C60.8477 11.7006 62.8507 13.6266 65.3045 13.6266C66.7567 13.6266 68.1087 12.9525 68.91 11.8932L67.5579 10.7857C67.0571 11.4598 66.2559 11.9413 65.3045 11.9413C63.8022 11.9413 62.6003 10.7857 62.6003 9.34118C62.6003 7.89666 63.8022 6.74105 65.3045 6.74105C66.2559 6.74105 67.0571 7.17441 67.5579 7.89666L68.91 6.7892C68.1087 5.72989 66.8068 5.05579 65.3045 5.05579Z" fill="white"/>
        <path fill-rule="evenodd" clip-rule="evenodd" d="M42.6697 5.05579C40.216 5.05579 38.2129 6.9818 38.2129 9.34118C38.2129 11.7006 40.216 13.6266 42.6697 13.6266C44.1219 13.6266 45.4239 12.9525 46.2752 11.8932L44.8731 10.8338C44.3723 11.5079 43.5711 11.8932 42.6697 11.8932C41.4679 11.8932 40.4163 11.1227 40.0657 10.0634H45.2236H46.6758H47.0264C47.0764 9.82268 47.0764 9.58193 47.0764 9.29303C47.1766 6.9818 45.1735 5.05579 42.6697 5.05579ZM40.0657 8.66707C40.3662 7.55961 41.4178 6.74105 42.6697 6.74105C43.9216 6.74105 44.9732 7.55961 45.2737 8.66707H40.0657Z" fill="white"/>
        <path d="M40.0308 2.18185V3.93424H36.7114V13.4303H34.7736V3.93424H31.4374V2.18185H40.0308Z" fill="white"/>
    </g>
    <defs>
        <clipPath id="clip0_97_69">
            <rect width="92" height="16" fill="white"/>
        </clipPath>
    </defs>
</svg>
