<svg width="20" height="20" viewBox="0 0 20 20" fill="none" xmlns="http://www.w3.org/2000/svg">
    <path d="M9.99996 1.66663C5.40496 1.66663 1.66663 5.40496 1.66663 9.99996C1.66663 14.595 5.40496 18.3333 9.99996 18.3333C14.595 18.3333 18.3333 14.595 18.3333 9.99996C18.3333 5.40496 14.595 1.66663 9.99996 1.66663ZM10.8333 15H9.16663V13.3333H10.8333V15ZM11.6466 10.9291C11.4833 11.0608 11.3258 11.1866 11.2008 11.3116C10.8608 11.6508 10.8341 11.9591 10.8333 11.9725V12.0833H9.16663V11.9441C9.16663 11.8458 9.19079 10.9633 10.0216 10.1325C10.1841 9.96996 10.3858 9.80496 10.5975 9.63329C11.2091 9.13746 11.6108 8.77579 11.6108 8.27746C11.6011 7.85648 11.427 7.456 11.1258 7.16172C10.8246 6.86745 10.4202 6.70274 9.99914 6.70285C9.57804 6.70296 9.17371 6.86788 8.87266 7.16231C8.57161 7.45674 8.39776 7.8573 8.38829 8.27829H6.72163C6.72163 6.47079 8.19246 4.99996 9.99996 4.99996C11.8075 4.99996 13.2783 6.47079 13.2783 8.27829C13.2783 9.60913 12.2958 10.4033 11.6466 10.9291Z" fill="#59E970"/>
</svg>
