<svg width="32" height="32" viewBox="0 0 32 32" fill="none" xmlns="http://www.w3.org/2000/svg">
    <path d="M10.9801 3.00101C9.93645 2.98916 8.90079 3.1852 7.93313 3.57778C6.96547 3.97036 6.08504 4.55167 5.34283 5.28805C4.60062 6.02443 4.01138 6.90125 3.60923 7.86773C3.20707 8.83421 3 9.87115 3 10.9185C3 11.9658 3.20707 13.0028 3.60923 13.9693C4.01138 14.9357 4.60062 15.8126 5.34283 16.5489C6.08504 17.2853 6.96547 17.8666 7.93313 18.2592C8.90079 18.6518 9.93645 18.8478 10.9801 18.836C13.0729 18.836 15.08 18.0018 16.5598 16.5168C18.0396 15.0319 18.871 13.018 18.871 10.918C18.871 8.81801 18.0396 6.80403 16.5598 5.31912C15.08 3.83421 13.0729 3 10.9801 3V3.00101ZM8.45522 5.75452C8.79954 5.75385 9.14059 5.82143 9.45881 5.95337C9.77704 6.08531 10.0662 6.27901 10.3096 6.52337C10.553 6.76772 10.7459 7.05791 10.8773 7.37727C11.0087 7.69664 11.0759 8.03889 11.0751 8.38439C11.076 8.72988 11.0089 9.07215 10.8775 9.39152C10.7462 9.71089 10.5533 10.0011 10.3098 10.2454C10.0664 10.4897 9.77717 10.6833 9.4589 10.815C9.14062 10.9468 8.79953 11.0142 8.45522 11.0132C8.11091 11.0142 7.76982 10.9468 7.45154 10.815C7.13327 10.6833 6.84409 10.4897 6.60063 10.2454C6.35716 10.0011 6.16422 9.71089 6.03289 9.39152C5.90156 9.07215 5.83444 8.72988 5.83537 8.38439C5.8347 8.03898 5.90201 7.69683 6.03344 7.37758C6.16486 7.05833 6.35781 6.76827 6.60122 6.52402C6.84463 6.27978 7.1337 6.08616 7.45186 5.95429C7.77001 5.82241 8.11099 5.75487 8.45522 5.75554V5.75452ZM19.6598 14.5907C19.3827 15.2407 19.033 15.8571 18.6175 16.428L26.5084 24.345C26.6743 24.5138 26.7673 24.7413 26.7673 24.9784C26.7673 25.2155 26.6743 25.443 26.5084 25.6118C26.3399 25.7778 26.1132 25.8708 25.8771 25.8708C25.641 25.8708 25.4144 25.7778 25.2459 25.6118L17.45 17.7577C16.4655 18.6936 15.2925 19.4068 14.01 19.8494V21.2429C14.01 21.6888 14.3847 22.0658 14.8311 22.0658H17.0399V24.2832C17.0399 24.7291 17.4146 25.1061 17.861 25.1061H20.0698V27.3235C20.0698 27.7694 20.4455 28.1464 20.8909 28.1464H23.131L23.6996 28.717C24.0451 29.0626 27.5052 29.2359 28.3707 28.3684C29.2363 27.4988 29.0616 24.0268 28.7172 23.6812L19.6598 14.5917V14.5907Z" fill="#59E970"/>
</svg>
