<svg width="16" height="16" viewBox="0 0 16 16" fill="none" xmlns="http://www.w3.org/2000/svg">
    <path d="M12.8 1.73642V0H3.2V1.73642H0V4.21053C0 6.33684 1.5112 8.08253 3.4592 8.36379C3.73822 9.22509 4.23312 9.99105 4.89158 10.5807C5.55005 11.1704 6.34762 11.5618 7.2 11.7137V12.6316C7.2 13.0783 7.03143 13.5066 6.73137 13.8225C6.43131 14.1383 6.02435 14.3158 5.6 14.3158H4.8V16H11.2V14.3158H10.4C9.97565 14.3158 9.56869 14.1383 9.26863 13.8225C8.96857 13.5066 8.8 13.0783 8.8 12.6316V11.7137C9.65238 11.5618 10.45 11.1704 11.1084 10.5807C11.7669 9.99105 12.2618 9.22509 12.5408 8.36379C14.4888 8.08253 16 6.33684 16 4.21053V1.73642H12.8ZM1.6 4.21053V3.42063H3.2V6.592C2.73239 6.41745 2.32757 6.09484 2.04109 5.66845C1.75462 5.24205 1.60054 4.73278 1.6 4.21053ZM14.4 4.21053C14.3994 4.73286 14.2453 5.24221 13.9588 5.66873C13.6724 6.09524 13.2676 6.41804 12.8 6.59284V3.42063H14.4V4.21053Z" fill="#59E970"/>
</svg>
