<svg width="40" height="40" viewBox="0 0 40 40" fill="none" xmlns="http://www.w3.org/2000/svg">
    <g clip-path="url(#clip0_58_8031)">
        <rect width="40" height="40" rx="20" fill="#33CC66"/>
        <path d="M20 39.2C30.6039 39.2 39.2 30.6039 39.2 20C39.2 9.39614 30.6039 0.800003 20 0.800003C9.39614 0.800003 0.800003 9.39614 0.800003 20C0.800003 30.6039 9.39614 39.2 20 39.2Z" stroke="#2E3031" stroke-width="1.59459"/>
        <path fill-rule="evenodd" clip-rule="evenodd" d="M11.2861 19.1111H16.0123C16.8394 19.1111 17.6074 18.7556 18.1981 18.2222C18.7298 17.6889 19.0843 16.9185 19.0843 16.0296V11.2889V10.4H19.9705H28.7138H29.6V11.2889V20V20.8889H28.7138H23.9877C23.1606 20.8889 22.3926 21.2444 21.8018 21.7778C21.2701 22.3111 20.9157 23.0815 20.9157 23.9704V28.7111V29.6H20.0295H11.2861H10.4V28.7704V20.0593V19.1704V19.1111H11.2861ZM16.0123 20.9481H12.1723V27.8815H19.0843V24.0296C19.0843 22.6667 19.616 21.4815 20.5021 20.5926C21.3883 19.7037 22.6289 19.1704 23.9286 19.1704H27.7686V12.1778H20.9157V16.0296C20.9157 17.3926 20.384 18.5778 19.4978 19.4667C18.6117 20.4148 17.3711 20.9481 16.0123 20.9481Z" fill="white"/>
    </g>
    <defs>
        <clipPath id="clip0_58_8031">
            <rect width="40" height="40" rx="20" fill="white"/>
        </clipPath>
    </defs>
</svg>
