<svg width="148" height="50" viewBox="0 0 148 50" fill="none" xmlns="http://www.w3.org/2000/svg">
    <g clip-path="url(#clip0_2_6875)">
        <rect width="50" height="50" rx="25" fill="#33CC66"/>
        <path d="M25 49C38.2548 49 49 38.2548 49 25C49 11.7452 38.2548 1 25 1C11.7452 1 1 11.7452 1 25C1 38.2548 11.7452 49 25 49Z" stroke="#252728" stroke-width="2"/>
        <path fill-rule="evenodd" clip-rule="evenodd" d="M14.1077 23.8889H20.0154C21.0492 23.8889 22.0092 23.4444 22.7477 22.7778C23.4123 22.1111 23.8554 21.1481 23.8554 20.037V14.1111V13H24.9631H35.8923H37V14.1111V25V26.1111H35.8923H29.9846C28.9508 26.1111 27.9908 26.5556 27.2523 27.2222C26.5877 27.8889 26.1446 28.8519 26.1446 29.963V35.8889V37H25.0369H14.1077H13V35.963V25.0741V23.963V23.8889H14.1077ZM20.0154 26.1852H15.2154V34.8519H23.8554V30.037C23.8554 28.3333 24.52 26.8519 25.6277 25.7407C26.7354 24.6296 28.2862 23.963 29.9108 23.963H34.7108V15.2222H26.1446V20.037C26.1446 21.7407 25.48 23.2222 24.3723 24.3333C23.2646 25.5185 21.7138 26.1852 20.0154 26.1852Z" fill="white"/>
    </g>
    <circle cx="64" cy="25" r="2" fill="#59E970"/>
    <path d="M79.7699 14.6364H85.0795L90.6875 28.3182H90.9261L96.5341 14.6364H101.844V35H97.6676V21.7457H97.4986L92.2287 34.9006H89.3849L84.1151 21.696H83.946V35H79.7699V14.6364ZM112.272 35.2983C110.701 35.2983 109.348 34.9801 108.215 34.3438C107.088 33.7008 106.22 32.7926 105.61 31.6193C105 30.4394 104.695 29.044 104.695 27.4332C104.695 25.8622 105 24.4834 105.61 23.2969C106.22 22.1103 107.078 21.1856 108.185 20.5227C109.299 19.8598 110.605 19.5284 112.103 19.5284C113.11 19.5284 114.048 19.6908 114.917 20.0156C115.792 20.3338 116.554 20.8144 117.203 21.4574C117.86 22.1004 118.37 22.9091 118.735 23.8835C119.099 24.8513 119.282 25.9848 119.282 27.2841V28.4474H106.385V25.8224H115.294C115.294 25.2126 115.162 24.6723 114.897 24.2017C114.632 23.7311 114.264 23.3632 113.793 23.098C113.329 22.8262 112.789 22.6903 112.172 22.6903C111.529 22.6903 110.959 22.8395 110.462 23.1378C109.971 23.4295 109.587 23.8239 109.309 24.321C109.03 24.8116 108.888 25.3584 108.881 25.9616V28.4574C108.881 29.2131 109.02 29.866 109.299 30.4162C109.584 30.9664 109.985 31.3906 110.502 31.6889C111.019 31.9872 111.632 32.1364 112.341 32.1364C112.812 32.1364 113.243 32.0701 113.634 31.9375C114.025 31.8049 114.36 31.6061 114.638 31.3409C114.917 31.0758 115.129 30.7509 115.275 30.3665L119.192 30.625C118.993 31.5663 118.586 32.3883 117.969 33.0909C117.359 33.7869 116.57 34.3305 115.603 34.7216C114.641 35.1061 113.531 35.2983 112.272 35.2983ZM129.006 35.2983C127.435 35.2983 126.083 34.9801 124.949 34.3438C123.822 33.7008 122.954 32.7926 122.344 31.6193C121.734 30.4394 121.429 29.044 121.429 27.4332C121.429 25.8622 121.734 24.4834 122.344 23.2969C122.954 22.1103 123.812 21.1856 124.919 20.5227C126.033 19.8598 127.339 19.5284 128.837 19.5284C129.845 19.5284 130.783 19.6908 131.651 20.0156C132.526 20.3338 133.288 20.8144 133.938 21.4574C134.594 22.1004 135.105 22.9091 135.469 23.8835C135.834 24.8513 136.016 25.9848 136.016 27.2841V28.4474H123.12V25.8224H132.029C132.029 25.2126 131.896 24.6723 131.631 24.2017C131.366 23.7311 130.998 23.3632 130.527 23.098C130.063 22.8262 129.523 22.6903 128.907 22.6903C128.264 22.6903 127.694 22.8395 127.196 23.1378C126.706 23.4295 126.321 23.8239 126.043 24.321C125.765 24.8116 125.622 25.3584 125.615 25.9616V28.4574C125.615 29.2131 125.755 29.866 126.033 30.4162C126.318 30.9664 126.719 31.3906 127.236 31.6889C127.753 31.9872 128.366 32.1364 129.076 32.1364C129.546 32.1364 129.977 32.0701 130.368 31.9375C130.759 31.8049 131.094 31.6061 131.373 31.3409C131.651 31.0758 131.863 30.7509 132.009 30.3665L135.926 30.625C135.728 31.5663 135.32 32.3883 134.703 33.0909C134.094 33.7869 133.305 34.3305 132.337 34.7216C131.376 35.1061 130.266 35.2983 129.006 35.2983ZM146.904 19.7273V22.9091H137.706V19.7273H146.904ZM139.794 16.0682H144.03V30.3068C144.03 30.6979 144.09 31.0028 144.209 31.2216C144.328 31.4337 144.494 31.5829 144.706 31.669C144.925 31.7552 145.177 31.7983 145.462 31.7983C145.661 31.7983 145.86 31.7817 146.059 31.7486C146.257 31.7088 146.41 31.679 146.516 31.6591L147.182 34.8111C146.97 34.8774 146.672 34.9536 146.287 35.0398C145.903 35.1326 145.435 35.1889 144.885 35.2088C143.864 35.2486 142.97 35.1127 142.201 34.8011C141.438 34.4896 140.845 34.0057 140.421 33.3494C139.997 32.6932 139.788 31.8646 139.794 30.8636V16.0682Z" fill="white"/>
    <defs>
        <clipPath id="clip0_2_6875">
            <rect width="50" height="50" rx="25" fill="white"/>
        </clipPath>
    </defs>
</svg>
