<svg width="16" height="16" viewBox="0 0 16 16" fill="none" xmlns="http://www.w3.org/2000/svg">
    <path d="M11.6287 7.88224C12.4744 7.88224 13.3824 6.75856 13.3824 5.60424C13.3824 4.44975 12.5973 3.70175 11.6287 3.70175C10.6602 3.70175 9.87506 4.44964 9.87506 5.60424C9.87506 6.75873 10.7556 7.88224 11.6287 7.88224V7.88224Z" fill="#59E970"/>
    <path d="M6.1697 8.3261C7.46649 8.3261 8.85888 6.60266 8.85888 4.83256C8.85888 3.06214 7.65508 1.91528 6.1697 1.91528C4.68461 1.91528 3.48053 3.06231 3.48053 4.83256C3.48053 6.60269 4.83051 8.3261 6.1697 8.3261Z" fill="#59E970"/>
    <path d="M10.9804 11.3399C10.6553 10.6955 10.4185 10.371 9.97723 9.91228C9.59577 9.51576 8.4573 8.95702 7.72243 9.20281C7.13635 9.33116 7.10859 9.66869 6.16978 9.66869C5.23097 9.66869 5.20306 9.33116 4.6167 9.20281C3.88183 8.95702 2.7435 9.51574 2.3619 9.91228C1.92049 10.371 1.68366 10.6958 1.35886 11.3399C1.19583 11.6629 0.856225 12.6052 1.06692 13.0105C1.33358 13.5235 1.98268 13.7359 3.7666 13.9539C4.83515 14.0846 6.16978 14.0846 6.16978 14.0846C6.16978 14.0846 7.50402 14.0846 8.57271 13.9539C10.3567 13.7359 11.0053 13.5235 11.2724 13.0105C11.4834 12.6052 11.1435 11.6629 10.9805 11.3399H10.9804Z" fill="#59E970"/>
    <path d="M14.766 9.84767C14.5545 9.42737 14.3997 9.216 14.1119 8.9166C13.8631 8.65796 13.1208 8.29364 12.6416 8.4539C12.2589 8.53762 12.2414 8.75771 11.629 8.75771C11.0168 8.75771 10.9988 8.53762 10.6164 8.4539C10.2312 8.32513 9.67668 8.53528 9.34424 8.75689C9.80142 8.9452 10.2076 9.20675 10.4494 9.45805C10.9517 9.98017 11.2228 10.3658 11.5657 11.0451C11.632 11.1768 11.7216 11.3897 11.8018 11.6359C12.0898 11.6313 12.688 11.6145 13.1956 11.5523C14.3591 11.4101 14.7824 11.2717 14.9562 10.937C15.0939 10.6727 14.8725 10.0582 14.7659 9.84763L14.766 9.84767Z" fill="#59E970"/>
</svg>
