<svg
        width="16"
        height="16"
        viewBox="0 0 16 16"
        fill="none"
        xmlns="http://www.w3.org/2000/svg"
>
    <path d="M10.667 8H12.0003V10.6667H10.667V8Z" fill="#0E151D" />
    <path
            d="M13.333 4.66667V3.33333C13.333 2.598 12.735 2 11.9997 2H3.33301C2.23034 2 1.33301 2.89733 1.33301 4V12C1.33301 13.4673 2.52901 14 3.33301 14H13.333C14.0683 14 14.6663 13.402 14.6663 12.6667V6C14.6663 5.26467 14.0683 4.66667 13.333 4.66667ZM3.33301 3.33333H11.9997V4.66667H3.33301C3.16135 4.65899 2.99928 4.5854 2.88053 4.46121C2.76177 4.33703 2.6955 4.17182 2.6955 4C2.6955 3.82818 2.76177 3.66297 2.88053 3.53879C2.99928 3.4146 3.16135 3.34101 3.33301 3.33333ZM13.333 12.6667H3.34101C3.03301 12.6587 2.66634 12.5367 2.66634 12V5.87667C2.87567 5.952 3.09767 6 3.33301 6H13.333V12.6667Z"
            fill="#0E151D"
    />
</svg>
